# xmcd
#
# Track frame offsets: 
#        180
#        20805
#        43467
#        54142
#        74623
#        86657
#        113380
#        130570
#        145960
#        163442
#        175790
#        192717
#        210811
#        224907
#        241977
#        260340
#        284958
#
# Disc length: 3893 seconds
#
# Revision: 1
# Processed by: cddbd v1.5.2PL0 Copyright (c) Steve Scherf et al.
# Submitted via: ExactAudioCopy v0.99pb4
#
DISCID=100f3311
DTITLE=The Hotmakers - Dixieland-Swing-Blues
DYEAR=1997
DGENRE=Swing
TTITLE0=Bourbon Street Parade
TTITLE1=St. Louis Blues March
TTITLE2=Sensation
TTITLE3=On The Sunny Side Of The Street
TTITLE4=Alabama Jubilee Stomp
TTITLE5=Medley (Mahogany Hall Stomp and Five Foot Two, Eyes Of Blue)
TTITLE6=My Melancholy Baby
TTITLE7=Struttin' With Some Barbecue
TTITLE8=Sentimental Journey
TTITLE9=Fidgety Feet
TTITLE10=Sweet Sue Just You
TTITLE11=Tuxedo Junction
TTITLE12=American Patrol
TTITLE13=Moonlight Serenade
TTITLE14=Hello Dolly
TTITLE15=Tiger Rag
TTITLE16=I'm Beginning To See The Light
EXTD=Hubertus Böhm (tp, voc]\nUwe Stiegler (tb]\nD. "Billy" Schmitz (c
EXTD=l, ts]\nUwe Ströfer (g]\nJurik Hösel (p]\nJochen Sakel (b]\nE. "A
EXTD=msel" Meyerdirks (dr]\n\n
EXTT0=
EXTT1=
EXTT2=
EXTT3=
EXTT4=
EXTT5=
EXTT6=
EXTT7=
EXTT8=
EXTT9=
EXTT10=
EXTT11=
EXTT12=
EXTT13=
EXTT14=
EXTT15=
EXTT16=
PLAYORDER=
